<?xml version="1.0" encoding="UTF-8"?><svg id="Layer_2" xmlns="http://www.w3.org/2000/svg" viewBox="0 0 138.43 399.67"><defs><style>.cls-1{fill:#6a82a3;}.cls-2{fill:#507491;}.cls-3{fill:#98c16d;}.cls-4{fill:#f9fae1;}.cls-5{fill:#616264;}.cls-6{fill:#4d4d4f;}.cls-7{fill:#875445;}.cls-8{fill:#7f6f4c;}.cls-9{fill:#784738;}.cls-10{fill:#f4c9b2;}.cls-11{fill:#894f41;}.cls-12{fill:#fcd8ac;}.cls-13{fill:#6d6e71;}.cls-14{fill:#cab699;}.cls-15{fill:#7d4e3f;}.cls-16{fill:#97846b;}.cls-17{fill:#dfe0ca;}.cls-18,.cls-19{fill:#2b2b2b;}.cls-20{fill:#5a82a3;}.cls-21{fill:#72483a;}.cls-22{fill:none;}.cls-23{fill:#99605f;}.cls-24{fill:#c1907d;}.cls-25{fill:#b87372;}.cls-19{isolation:isolate;opacity:.1;}</style></defs><polygon class="cls-8" points="44.14 129.52 37.26 145.92 36.45 160.79 49 158.23 65.04 137.92 58.07 125.16 44.14 129.52"/><polygon class="cls-11" points="31.04 137.38 24.89 148.27 26.6 163.29 37.54 160.79 42.67 144.39 31.04 137.38"/><polygon class="cls-5" points="34.82 146 24.89 148.27 0 207.99 24.89 202.58 34.82 146"/><path class="cls-19" d="M6.84,381.17l65.49-11.41c.26-.05,.53-.04,.79,.02l60.99,13.42c2.17,.48,2.12,3.6-.06,4l-66.64,12.44c-.28,.05-.57,.05-.85-.02l-59.84-14.45c-2.15-.52-2.05-3.62,.13-4Z"/><polygon class="cls-17" points="76.84 366.27 67.9 357.66 58.25 360.59 35.1 375.43 58.56 378.02 77.47 375.43 78.85 370.28 76.84 366.27"/><rect class="cls-18" x="35.1" y="375.43" width="42.37" height="6.96"/><polygon class="cls-4" points="96.04 362.97 103.7 384.59 94.29 387.15 67.17 384.59 76.84 366.27 84.76 357.66 96.04 362.97"/><rect class="cls-18" x="67.17" y="384.59" width="36.53" height="6.96"/><polygon class="cls-20" points="19.35 250.67 58.25 323.4 106.7 251.4 59.2 246.02 19.35 250.67"/><path class="cls-10" d="M55.1,140.55l-2.2,1.65-2.26,4.75v3.27l3,3.13s9.37-.23,10.13,0,8.53-3.2,8.53-3.2l5.4-17.34-22.6,7.74Z"/><polygon class="cls-13" points="20.81 186.17 27.56 225.47 78.97 202.01 86.4 186.17 48.13 175.91 20.81 186.17"/><polygon class="cls-4" points="50.79 150.62 70.32 150.62 54.45 186.17 46.22 186.17 41.9 186.17 50.79 150.62"/><path class="cls-12" d="M17.34,48.51l3.45,39.38c.77,8.74,4.06,17.08,9.48,23.98l13.44,17.11c.27,.34,.68,.54,1.12,.54h26.49c.44,0,.86-.2,1.12-.55l12.15-15.73c4.47-5.78,7.1-12.77,7.56-20.07l2.78-44.13c.02-.3-.06-.6-.22-.85l-7.37-11.54c-.16-.26-.41-.45-.69-.56l-38.14-14.51c-.43-.16-.91-.11-1.3,.15l-20.99,14.05c-.14,.09-.26,.21-.36,.35l-8.27,11.44c-.2,.28-.29,.62-.26,.96Z"/><polygon class="cls-14" points="74.51 156.37 82.73 156.37 124.34 84.22 110.58 73.15 94.96 48.57 90.06 103.24 71.12 129.52 74.51 156.37"/><polygon class="cls-16" points="51.35 129.52 53.6 150.62 70.32 150.62 84.56 129.52 51.35 129.52"/><polygon class="cls-13" points="52.26 142.43 34.82 146 20.81 186.17 46.22 186.17 50.64 167.49 49.23 149.48 52.26 142.43"/><path class="cls-5" d="M55.51,195.92L0,207.99l8.84,16.98c2.13,4.1,7.1,5.81,11.31,3.89l34.51-15.75,.85-17.19Z"/><polygon class="cls-12" points="55.51 195.92 78.97 202.01 54.66 213.11 55.51 195.92"/><polygon class="cls-5" points="46.22 186.17 76.17 141.99 108.53 138.94 86.4 186.17 46.22 186.17"/><path class="cls-9" d="M86.98,147.88l-7.89,12.6c-.81,1.3-.6,2.99,.52,4.04l8.89,8.4c1.44,1.36,3.74,1.11,4.86-.52l10.34-15.15c.45-.66,1.12-1.12,1.89-1.31l8.98-2.18c.5-.12,.97-.36,1.36-.7l15.26-13.36c.57-.5,.94-1.18,1.06-1.93l6.13-39.72c.04-.26,.05-.53,.02-.8l-2.58-26.78c-.04-.46-.19-.91-.43-1.31l-10.08-17.22c-.5-.85-.58-1.89-.21-2.81l6.2-15.65c.47-1.18,.19-2.54-.7-3.44L101.88,1.04c-.66-.66-1.57-1.01-2.5-.95l-33.62,2.24c-.1,0-.21,0-.31,0l-20.73-.63c-.81-.02-1.6,.26-2.21,.79L18.19,23.71c-.58,.51-.96,1.2-1.07,1.97l-.45,3.16c-.43,2.99,3.13,4.86,5.35,2.82h0c.29-.27,.63-.48,1-.62l23.16-9.08c1.03-.4,2.19-.25,3.08,.41l52.54,38.92c.26,.2,.5,.43,.69,.7l7.84,10.83c.17,.23,.37,.44,.59,.62l11.27,9.06c1.24,1,1.56,2.75,.76,4.13l-35.96,61.27Z"/><polygon class="cls-5" points="108.53 138.94 122.85 169.82 93.75 225.47 78.97 202.01 108.53 138.94"/><polygon class="cls-13" points="27.56 225.47 19.35 251.17 106.7 251.98 93.75 225.47 37.34 221.01 27.56 225.47"/><polygon class="cls-2" points="106.7 251.4 89.6 315.15 77.47 327.79 76.84 366.27 40.28 321.75 58.25 273.66 106.7 251.4"/><polygon class="cls-20" points="58.25 323.4 76.84 366.27 96.04 362.97 89.6 315.15 58.25 323.4"/><polygon class="cls-1" points="58.25 273.66 19.35 250.67 40.28 321.75 58.25 323.4 58.25 273.66"/><polygon class="cls-1" points="76.84 366.27 58.25 323.4 40.28 321.75 58.25 360.59 76.84 366.27"/><polygon class="cls-21" points="33.76 116.49 31.04 137.38 42.67 144.39 44.14 129.52 33.76 116.49"/><path class="cls-5" d="M78.97,202.01l14.78,23.46-.71,1.06c-2.6,3.86-7.31,5.71-11.84,4.66l-43.85-10.18,41.63-19Z"/><polygon class="cls-12" points="47.11 67.28 47.03 82.22 44.78 91.44 53.67 91.44 50.91 82.71 50.86 67.28 47.11 67.28"/><path class="cls-24" d="M46.77,93.33l2.08,1.97c.42,.4,1.09,.4,1.51,0l2.07-1.97c.72-.68,.23-1.89-.76-1.89h-4.15c-.99,0-1.47,1.21-.75,1.89Z"/><polygon class="cls-21" points="56.47 59.79 61.17 54.38 72.21 54.38 81.12 56.72 72.44 56.27 56.47 59.79"/><polygon class="cls-21" points="42.52 59.79 38.95 54.38 30.57 54.38 24.24 56.72 30.39 56.27 42.52 59.79"/><path class="cls-14" d="M42.65,60.01l4.36,7.11c.06,.11,.1,.23,.1,.35l-.07,12.86c0,.63-.79,.9-1.19,.41l-10.16-12.77s-.04-.04-.05-.06l-10.35-10.16c-.41-.4-.15-1.1,.42-1.14l4.56-.33c.08,0,.16,0,.23,.02l11.77,3.41c.16,.05,.3,.15,.38,.29Z"/><path class="cls-14" d="M56.07,60.32l-4.86,6.48c-.23,.31-.36,.69-.36,1.07l.05,14.56c0,.18,.03,.36,.08,.53l1.32,4.17c.49,1.54,2.61,1.69,3.31,.23l9.11-18.98c.13-.28,.34-.52,.59-.69l11.52-8.01c1.4-.97,.77-3.16-.93-3.25l-3.23-.17c-.16,0-.32,0-.48,.04l-15.09,3.33c-.42,.09-.79,.33-1.04,.67Z"/><polygon class="cls-12" points="110.58 73.15 109.52 93.73 118.85 93.73 124.34 84.22 110.58 73.15"/><polygon class="cls-24" points="109.52 93.73 113.31 103.01 118.85 93.73 109.52 93.73"/><polygon class="cls-7" points="102.2 61.57 110.58 73.15 135.74 69.77 132.06 31.54 68.65 21.3 85.83 37.27 102.2 61.57"/><polygon class="cls-21" points="110.58 73.15 124.34 84.22 138.43 97.65 135.74 69.77 110.58 73.15"/><polygon class="cls-7" points="100.85 0 68.65 21.3 47.83 21.3 65.61 2.35 100.85 0"/><polygon class="cls-11" points="115.33 153.57 86.98 147.88 113.31 103.01 132.06 138.92 115.33 153.57"/><polygon class="cls-21" points="77.37 163.58 91.23 175.5 86.4 186.17 77.37 163.58"/><polygon class="cls-7" points="22.46 31.25 17.29 24.49 6.89 45.64 17.29 47.98 22.46 31.25"/><polygon class="cls-7" points="17.29 47.98 6.89 45.64 20.53 83.54 17.29 47.98"/><polygon class="cls-22" points="112.33 189.74 112.33 189.74 101.36 181 112.33 189.74"/><polygon class="cls-22" points="113.83 186.86 113.84 186.86 109.2 183.17 113.83 186.86"/><line class="cls-3" x1="109.64" y1="177.32" x2="109.63" y2="177.33"/><line class="cls-3" x1="107.42" y1="179.63" x2="107.43" y2="179.65"/><line class="cls-3" x1="110.82" y1="192.62" x2="111.57" y2="191.18"/><polygon class="cls-21" points="109.93 85.66 103.14 76.25 102.2 61.57 110.58 73.15 109.93 85.66"/><polygon class="cls-12" points="27.92 201.92 17.3 192.87 6.52 206.57 27.92 201.92"/><polygon class="cls-11" points="77.37 163.58 92.32 156.37 115.33 153.57 122.85 169.82 91.23 175.5 77.37 163.58"/><polygon class="cls-21" points="77.37 163.58 115.33 153.57 86.98 147.88 77.37 163.58"/><polygon class="cls-25" points="40.6 105.35 44.36 108.95 56.3 108.95 61.86 105.15 50.15 104.41 40.6 105.35"/><polygon class="cls-23" points="40.42 105.35 62.04 105.13 64.04 103.66 59.95 103.23 53.63 101.14 49.79 102.47 46.13 101.18 38 104.41 40.42 105.35"/><polygon class="cls-24" points="115.12 76.8 114.78 87.12 120.19 80.88 115.12 76.8"/><polygon class="cls-15" points="47.83 21.3 26.02 35.9 17.29 47.98 22.46 31.25 47.83 21.3"/><polygon class="cls-6" points="58.88 167.49 75.87 142.43 94.96 134.28 86.98 147.88 58.88 167.49"/><polygon class="cls-6" points="51.35 129.52 42.67 144.39 50.64 167.49 53.6 150.62 51.35 129.52"/><path class="cls-18" d="M68.72,67.95c0,2.09-1.71,3.79-3.8,3.78s-3.79-1.71-3.78-3.8c0-2.09,1.7-3.78,3.79-3.78s3.79,1.7,3.79,3.79c0,0,0,0,0,.01Z"/><path class="cls-18" d="M39.46,67.95c0,2.09-1.71,3.79-3.8,3.78s-3.79-1.71-3.78-3.8c0-2.09,1.7-3.78,3.79-3.78s3.79,1.7,3.79,3.79c0,0,0,0,0,.01Z"/></svg>